<svg id="Group_620" data-name="Group 620" xmlns="http://www.w3.org/2000/svg" width="225.879" height="77.836" viewBox="0 0 225.879 77.836">
  <g id="Group_2023" data-name="Group 2023">
    <path id="Path_532" data-name="Path 532" d="M225.879,67.27A10.343,10.343,0,0,1,215.84,77.836H10.039A10.343,10.343,0,0,1,0,67.27v-56.7A10.343,10.343,0,0,1,10.039,0h205.8a10.343,10.343,0,0,1,10.039,10.566Z" fill="#0e3c65"/>
    <g id="Group_616" data-name="Group 616" transform="translate(39.487 19.743)">
      <path id="Path_533" data-name="Path 533" d="M42.039,33.175a27.5,27.5,0,0,1-2.523,4.668c-1.64,2.523-3.911,5.551-6.686,5.551-2.523,0-3.154-1.64-6.56-1.64s-4.163,1.64-6.686,1.64c-2.775,0-5.046-2.775-6.56-5.3-4.541-6.938-5.046-15.012-2.271-19.3A10.161,10.161,0,0,1,18.828,14c3.028,0,4.92,1.64,7.317,1.64S30.055,14,33.461,14a9.352,9.352,0,0,1,7.317,3.911C34.47,21.443,35.479,30.652,42.039,33.175Z" transform="translate(-9.046 -5.043)" fill="#fff"/>
      <g id="Group_615" data-name="Group 615" transform="translate(15.882)">
        <path id="Path_534" data-name="Path 534" d="M27.646,13.081A8.275,8.275,0,0,0,29.538,6.9a8.674,8.674,0,0,0-5.929,3.154,7.821,7.821,0,0,0-1.892,6.055A7.852,7.852,0,0,0,27.646,13.081Z" transform="translate(-21.636 -6.9)" fill="#fff"/>
      </g>
    </g>
    <g id="Group_619" data-name="Group 619" transform="translate(79.796 19.743)">
      <g id="Group_617" data-name="Group 617" transform="translate(0 13.498)">
        <path id="Path_535" data-name="Path 535" d="M47.434,17.7,41,36.875h3.028l1.892-5.8h6.307l2.018,5.8h3.028l-6.56-19.049h-3.28Zm1.64,3.154L49.83,23.5,51.6,28.549h-4.92L48.443,23.5C48.569,22.746,48.821,21.863,49.074,20.854Z" transform="translate(-41 -17.574)" fill="#fff"/>
        <path id="Path_536" data-name="Path 536" d="M62.017,21.7a5.294,5.294,0,0,0-4.541,2.145l-.126-1.892H54.7V22.2a43.34,43.34,0,0,1,.126,4.415V41.379h2.9V34.567a4.717,4.717,0,0,0,3.911,1.64,5.917,5.917,0,0,0,4.415-1.892,8.006,8.006,0,0,0,1.892-5.551,8.06,8.06,0,0,0-1.64-5.046A5.367,5.367,0,0,0,62.017,21.7Zm-.631,2.4c2.523,0,3.784,2.4,3.784,4.794,0,3.028-1.514,4.92-3.784,4.92a3.52,3.52,0,0,1-3.406-2.649,2.147,2.147,0,0,1-.126-.883V28.007a1.6,1.6,0,0,1,.126-.757V27A3.394,3.394,0,0,1,61.386,24.1Z" transform="translate(-37.418 -16.528)" fill="#fff"/>
        <path id="Path_537" data-name="Path 537" d="M73.817,21.7a5.294,5.294,0,0,0-4.541,2.145l-.126-1.892H66.5V22.2a43.335,43.335,0,0,1,.126,4.415V41.379h2.9V34.567a4.717,4.717,0,0,0,3.911,1.64,5.917,5.917,0,0,0,4.415-1.892,8.007,8.007,0,0,0,1.892-5.551,8.06,8.06,0,0,0-1.64-5.046A5.367,5.367,0,0,0,73.817,21.7Zm-.757,2.4c2.523,0,3.784,2.4,3.784,4.794,0,3.028-1.514,4.92-3.784,4.92a3.52,3.52,0,0,1-3.406-2.649,2.147,2.147,0,0,1-.126-.883V28.007a1.6,1.6,0,0,1,.126-.757V27A3.592,3.592,0,0,1,73.06,24.1Z" transform="translate(-34.332 -16.528)" fill="#fff"/>
        <path id="Path_538" data-name="Path 538" d="M88.512,25.926c-2.649-1.009-3.532-1.892-3.532-3.406,0-1.261,1.009-2.523,3.28-2.523a6.161,6.161,0,0,1,3.406.883l.252.126.757-2.4-.126-.126a9.122,9.122,0,0,0-4.163-.883c-3.658,0-6.307,2.145-6.307,5.3,0,2.523,1.64,4.289,5.046,5.551,2.4.883,3.406,1.892,3.406,3.406,0,1.766-1.388,2.9-3.658,2.9a7.629,7.629,0,0,1-4.163-1.135l-.252-.126L81.7,36.018l.126.126a9.794,9.794,0,0,0,4.92,1.261c4.92,0,6.686-3.028,6.686-5.677C93.432,28.953,91.918,27.187,88.512,25.926Z" transform="translate(-30.357 -17.6)" fill="#fff"/>
        <path id="Path_539" data-name="Path 539" d="M96.12,19.3l-2.9.883v2.4H91.2v2.271h2.018v7.064a5.511,5.511,0,0,0,1.009,3.658A3.522,3.522,0,0,0,97,36.709a6.753,6.753,0,0,0,2.271-.378H99.4l-.126-2.271h-.252a4.315,4.315,0,0,1-1.388.126c-1.135,0-1.64-.757-1.64-2.4V24.851h3.532V22.58H95.994V19.3Z" transform="translate(-27.873 -17.155)" fill="#fff"/>
        <path id="Path_540" data-name="Path 540" d="M104.912,21.7c-4.037,0-6.812,3.028-6.812,7.317,0,4.163,2.775,7.064,6.686,7.064h0c3.28,0,6.812-2.271,6.812-7.317a7.474,7.474,0,0,0-1.892-5.172A6.178,6.178,0,0,0,104.912,21.7Zm0,2.271c2.649,0,3.784,2.523,3.784,4.92,0,2.9-1.64,5.046-3.784,5.046h0c-2.145,0-3.784-2.018-3.784-4.92C101,26.494,102.137,23.971,104.912,23.971Z" transform="translate(-26.069 -16.528)" fill="#fff"/>
        <path id="Path_541" data-name="Path 541" d="M117.317,21.826h-.126a1.6,1.6,0,0,0-.757-.126,4.211,4.211,0,0,0-3.658,2.271l-.126-2.018H110V22.2a39.344,39.344,0,0,1,.126,4.163v9.461h2.9V28.512a3.493,3.493,0,0,1,.126-1.135c.378-1.766,1.514-2.9,3.028-2.9h1.009V21.826Z" transform="translate(-22.957 -16.528)" fill="#fff"/>
        <path id="Path_542" data-name="Path 542" d="M122.36,21.7c-3.784,0-6.56,3.028-6.56,7.443,0,4.289,2.649,6.938,6.812,6.938a11.359,11.359,0,0,0,4.541-.883l.126-.126-.5-2.145-.252.126a8.249,8.249,0,0,1-3.658.631,3.936,3.936,0,0,1-4.289-4.163h9.335V29.4c0-.252.126-.631.126-1.261C128.036,25.106,126.523,21.7,122.36,21.7Zm-.252,2.145a2.967,2.967,0,0,1,2.145.757,3.9,3.9,0,0,1,1.009,2.649H118.7C118.954,25.611,119.963,23.845,122.107,23.845Z" transform="translate(-21.44 -16.528)" fill="#fff"/>
      </g>
      <g id="Group_618" data-name="Group 618">
        <path id="Path_543" data-name="Path 543" d="M41,7.426A18.657,18.657,0,0,1,43.775,7.3a5.936,5.936,0,0,1,4.037,1.135,4,4,0,0,1,1.388,3.28,4.747,4.747,0,0,1-1.388,3.532A6.584,6.584,0,0,1,43.4,16.509a14.486,14.486,0,0,1-2.4-.126ZM42.261,15.5h1.261c2.775,0,4.289-1.388,4.289-3.784.126-2.271-1.261-3.532-4.037-3.532a5.2,5.2,0,0,0-1.514.126Z" transform="translate(-41 -6.795)" fill="#fff"/>
        <path id="Path_544" data-name="Path 544" d="M51.906,15.986a3.213,3.213,0,0,1-3.406-3.28,3.538,3.538,0,1,1,3.406,3.28Zm.126-.883a2.239,2.239,0,0,0,2.145-2.523,2.288,2.288,0,0,0-2.145-2.523c-1.514,0-2.145,1.261-2.145,2.523A2.234,2.234,0,0,0,52.032,15.1Z" transform="translate(-39.039 -6.272)" fill="#fff"/>
        <path id="Path_545" data-name="Path 545" d="M55.935,9.3l1.009,3.28a15.691,15.691,0,0,1,.5,2.018h0a12.4,12.4,0,0,1,.631-2.018L59.215,9.3h1.135l1.135,3.28a19.458,19.458,0,0,1,.631,2.145h0a17.2,17.2,0,0,1,.5-2.145L63.63,9.3h1.261l-2.271,6.434H61.486l-1.009-3.028a13.782,13.782,0,0,1-.631-2.145h0a10.656,10.656,0,0,1-.631,2.145L58.08,15.734H56.945L54.8,9.3h1.135Z" transform="translate(-37.391 -6.272)" fill="#fff"/>
        <path id="Path_546" data-name="Path 546" d="M64,11.118V9.352h1.135l.126,1.009h0a2.665,2.665,0,0,1,2.4-1.261c1.009,0,2.523.5,2.523,2.775v3.911H68.92V12c0-1.009-.378-1.892-1.64-1.892a1.781,1.781,0,0,0-1.766,1.261c0,.126-.126.378-.126.5v3.911H64.126V11.118Z" transform="translate(-34.986 -6.325)" fill="#fff"/>
        <path id="Path_547" data-name="Path 547" d="M70.6,6.9h1.261v9.461H70.6Z" transform="translate(-33.26 -6.9)" fill="#fff"/>
        <path id="Path_548" data-name="Path 548" d="M76.406,15.986A3.213,3.213,0,0,1,73,12.706a3.538,3.538,0,0,1,7.064-.126,3.5,3.5,0,0,1-3.658,3.406Zm0-.883a2.239,2.239,0,0,0,2.145-2.523,2.288,2.288,0,0,0-2.145-2.523c-1.514,0-2.145,1.261-2.145,2.523A2.31,2.31,0,0,0,76.406,15.1Z" transform="translate(-32.632 -6.272)" fill="#fff"/>
        <path id="Path_549" data-name="Path 549" d="M84.924,14.22a5.655,5.655,0,0,0,.126,1.514H83.915l-.126-.757h0a2.689,2.689,0,0,1-2.145,1.009c-1.514,0-2.145-.883-2.145-1.892,0-1.514,1.514-2.4,4.289-2.4v-.126c0-.5-.126-1.514-1.64-1.514a3.285,3.285,0,0,0-1.892.5L80,9.8a4.8,4.8,0,0,1,2.4-.5c2.271,0,2.775,1.388,2.775,2.649V14.22Zm-1.261-1.64c-1.388,0-3.028.252-3.028,1.514,0,.757.5,1.135,1.262,1.135a1.726,1.726,0,0,0,1.766-1.135V12.58Z" transform="translate(-30.933 -6.272)" fill="#fff"/>
        <path id="Path_550" data-name="Path 550" d="M91.786,6.9v9.461H90.651V15.226h0a2.568,2.568,0,0,1-2.4,1.261,3.154,3.154,0,0,1-3.154-3.28,3.323,3.323,0,0,1,3.28-3.532,2.339,2.339,0,0,1,2.145,1.009h0V6.9Zm-1.262,5.677v-.5a1.929,1.929,0,0,0-1.892-1.388,2.234,2.234,0,0,0-2.145,2.523,2.126,2.126,0,0,0,2.145,2.4,1.9,1.9,0,0,0,1.892-1.388v-1.64Z" transform="translate(-29.468 -6.9)" fill="#fff"/>
        <path id="Path_551" data-name="Path 551" d="M97.706,15.986a3.213,3.213,0,0,1-3.406-3.28,3.538,3.538,0,0,1,7.064-.126,3.43,3.43,0,0,1-3.658,3.406Zm0-.883a2.239,2.239,0,0,0,2.145-2.523,2.288,2.288,0,0,0-2.145-2.523c-1.514,0-2.145,1.261-2.145,2.523A2.31,2.31,0,0,0,97.706,15.1Z" transform="translate(-27.062 -6.272)" fill="#fff"/>
        <path id="Path_552" data-name="Path 552" d="M101.2,11.118V9.352h1.135l.126,1.009h0a2.665,2.665,0,0,1,2.4-1.261c1.009,0,2.523.5,2.523,2.775v3.911H106.12V12c0-1.009-.378-1.892-1.64-1.892a1.781,1.781,0,0,0-1.766,1.261c0,.126-.126.378-.126.5v3.911h-1.262V11.118Z" transform="translate(-25.258 -6.325)" fill="#fff"/>
        <path id="Path_553" data-name="Path 553" d="M112,8.1V9.614h1.892V10.5H112v3.532c0,.757.252,1.261,1.009,1.261a1.366,1.366,0,0,0,.757-.126v.883a2.8,2.8,0,0,1-1.135.126,1.572,1.572,0,0,1-1.388-.5,2.282,2.282,0,0,1-.5-1.766V10.5H109.6V9.614h1.135V8.478Z" transform="translate(-23.062 -6.586)" fill="#fff"/>
        <path id="Path_554" data-name="Path 554" d="M114.1,6.9h1.261v4.037h0a2.948,2.948,0,0,1,.883-.883,2.543,2.543,0,0,1,1.388-.378c1.009,0,2.523.5,2.523,2.775v3.911h-1.262V12.577c0-1.009-.378-1.892-1.64-1.892a1.843,1.843,0,0,0-1.766,1.135.758.758,0,0,0-.126.5v3.911H114.1V6.9Z" transform="translate(-21.885 -6.9)" fill="#fff"/>
        <path id="Path_555" data-name="Path 555" d="M121.562,12.858a2.149,2.149,0,0,0,2.4,2.271,4.423,4.423,0,0,0,2.018-.378l.252.883a8.541,8.541,0,0,1-2.4.378,3.251,3.251,0,0,1-3.532-3.28A3.278,3.278,0,0,1,123.706,9.2a2.875,2.875,0,0,1,3.028,3.028v.5Zm3.784-.883a1.733,1.733,0,0,0-1.766-1.892,2.053,2.053,0,0,0-2.018,1.892Z" transform="translate(-20.264 -6.299)" fill="#fff"/>
      </g>
    </g>
  </g>
</svg>
