<svg id="Group_625" data-name="Group 625" xmlns="http://www.w3.org/2000/svg" xmlns:xlink="http://www.w3.org/1999/xlink" width="224.887" height="77.834" viewBox="0 0 224.887 77.834">
  <defs>
    <linearGradient id="linear-gradient" x1="0.908" y1="2.172" x2="-0.383" y2="1.501" gradientUnits="objectBoundingBox">
      <stop offset="0" stop-color="#00a0ff"/>
      <stop offset="0.007" stop-color="#00a1ff"/>
      <stop offset="0.26" stop-color="#00beff"/>
      <stop offset="0.512" stop-color="#00d2ff"/>
      <stop offset="0.76" stop-color="#00dfff"/>
      <stop offset="1" stop-color="#00e3ff"/>
    </linearGradient>
    <linearGradient id="linear-gradient-2" x1="1.077" y1="4.084" x2="-1.307" y2="4.084" gradientUnits="objectBoundingBox">
      <stop offset="0" stop-color="#ffe000"/>
      <stop offset="0.409" stop-color="#ffbd00"/>
      <stop offset="0.775" stop-color="orange"/>
      <stop offset="1" stop-color="#ff9c00"/>
    </linearGradient>
    <linearGradient id="linear-gradient-3" x1="0.864" y1="2.19" x2="-0.499" y2="0.424" gradientUnits="objectBoundingBox">
      <stop offset="0" stop-color="#ff3a44"/>
      <stop offset="1" stop-color="#c31162"/>
    </linearGradient>
    <linearGradient id="linear-gradient-4" x1="-0.186" y1="4.924" x2="0.423" y2="4.132" gradientUnits="objectBoundingBox">
      <stop offset="0" stop-color="#32a071"/>
      <stop offset="0.068" stop-color="#2da771"/>
      <stop offset="0.476" stop-color="#15cf74"/>
      <stop offset="0.801" stop-color="#06e775"/>
      <stop offset="1" stop-color="#00f076"/>
    </linearGradient>
  </defs>
  <g id="Group_2024" data-name="Group 2024" transform="translate(0 0)">
    <g id="Group_621" data-name="Group 621">
      <path id="Path_556" data-name="Path 556" d="M216.558,77.834H8.329C3.665,77.834,0,73.554,0,68.105V9.729C0,4.281,3.665,0,8.329,0H216.558c4.664,0,8.329,4.281,8.329,9.729V68.105C224.887,73.554,221.222,77.834,216.558,77.834Z" fill="#0e3c65"/>
    </g>
    <g id="Group_622" data-name="Group 622" transform="translate(79.086 19.742)">
      <path id="Path_557" data-name="Path 557" d="M48.967,11.062a3.435,3.435,0,0,1-.883,2.522A3.91,3.91,0,0,1,41.4,10.81,3.876,3.876,0,0,1,45.31,6.9a3.358,3.358,0,0,1,1.513.378,2.746,2.746,0,0,1,1.135.883l-.631.631a2.352,2.352,0,0,0-2.018-.883,2.509,2.509,0,0,0-2.018.883,2.6,2.6,0,0,0-.883,2.144,2.6,2.6,0,0,0,.883,2.144,3.247,3.247,0,0,0,2.018.883,2.766,2.766,0,0,0,2.144-.883,2.088,2.088,0,0,0,.631-1.513H45.31V10.557h3.657C48.967,10.683,48.967,10.936,48.967,11.062Z" transform="translate(-41.4 -6.9)" fill="#fff" stroke="#fff" stroke-width="0.2"/>
      <path id="Path_558" data-name="Path 558" d="M52.914,7.883H49.509v2.4h3.153v.883H49.509v2.4h3.405v1.009H48.5V7h4.414Z" transform="translate(-39.546 -6.874)" fill="#fff" stroke="#fff" stroke-width="0.2"/>
      <path id="Path_559" data-name="Path 559" d="M55.953,14.567H54.944V7.883H52.8V7h5.3v.883H55.953Z" transform="translate(-38.423 -6.874)" fill="#fff" stroke="#fff" stroke-width="0.2"/>
      <path id="Path_560" data-name="Path 560" d="M59.9,14.567V7h1.009v7.567Z" transform="translate(-36.569 -6.874)" fill="#fff" stroke="#fff" stroke-width="0.2"/>
      <path id="Path_561" data-name="Path 561" d="M64.753,14.567H63.744V7.883H61.6V7h5.171v.883H64.627v6.684Z" transform="translate(-36.125 -6.874)" fill="#fff" stroke="#fff" stroke-width="0.2"/>
      <path id="Path_562" data-name="Path 562" d="M74.984,13.584A3.91,3.91,0,0,1,68.3,10.81a3.91,3.91,0,1,1,7.819,0A3.708,3.708,0,0,1,74.984,13.584Zm-4.792-.631a2.976,2.976,0,0,0,2.018.883,2.509,2.509,0,0,0,2.018-.883,3.043,3.043,0,0,0,.883-2.144,2.6,2.6,0,0,0-.883-2.144,2.976,2.976,0,0,0-2.018-.883,2.509,2.509,0,0,0-2.018.883,3.043,3.043,0,0,0-.883,2.144A2.6,2.6,0,0,0,70.192,12.953Z" transform="translate(-34.375 -6.9)" fill="#fff" stroke="#fff" stroke-width="0.2"/>
      <path id="Path_563" data-name="Path 563" d="M75.6,14.567V7h1.135l3.657,5.927h0V7H81.4v7.567H80.392l-3.91-6.18h0v6.18Z" transform="translate(-32.469 -6.874)" fill="#fff" stroke="#fff" stroke-width="0.2"/>
    </g>
    <path id="Path_564" data-name="Path 564" d="M75.151,23.027a5.306,5.306,0,0,0-5.423,5.423,5.383,5.383,0,0,0,5.423,5.423,5.306,5.306,0,0,0,5.423-5.423A5.232,5.232,0,0,0,75.151,23.027Zm0,8.576a3.13,3.13,0,0,1-3.027-3.279,3.13,3.13,0,0,1,3.027-3.279,3.055,3.055,0,0,1,3.027,3.279A3.13,3.13,0,0,1,75.151,31.6ZM63.422,23.027A5.306,5.306,0,0,0,58,28.45a5.383,5.383,0,0,0,5.423,5.423,5.306,5.306,0,0,0,5.423-5.423A5.232,5.232,0,0,0,63.422,23.027Zm0,8.576A3.13,3.13,0,0,1,60.4,28.324a3.13,3.13,0,0,1,3.027-3.279,3.055,3.055,0,0,1,3.027,3.279A3.13,3.13,0,0,1,63.422,31.6Zm-14-6.936v2.27h5.423a4.769,4.769,0,0,1-1.261,2.9,5.582,5.582,0,0,1-4.162,1.639A5.872,5.872,0,0,1,43.5,25.424a5.949,5.949,0,0,1,5.927-6.053,6.253,6.253,0,0,1,4.162,1.639l1.639-1.639A8.081,8.081,0,0,0,49.55,17.1a8.507,8.507,0,0,0-8.45,8.324,8.507,8.507,0,0,0,8.45,8.324,7.258,7.258,0,0,0,5.8-2.4,7.592,7.592,0,0,0,2.018-5.3,4.728,4.728,0,0,0-.126-1.387Zm57.256,1.766a4.9,4.9,0,0,0-4.54-3.405,5.079,5.079,0,0,0-5.045,5.423,5.278,5.278,0,0,0,5.3,5.423,5.173,5.173,0,0,0,4.414-2.4l-1.766-1.261a3.074,3.074,0,0,1-2.648,1.513,2.736,2.736,0,0,1-2.648-1.639l7.188-3.027ZM99.365,28.2a3.064,3.064,0,0,1,2.775-3.153,2.231,2.231,0,0,1,2.018,1.135Zm-5.927,5.171h2.4V17.6h-2.4Zm-3.783-9.206h0a4.152,4.152,0,0,0-2.9-1.261,5.419,5.419,0,0,0-5.171,5.423,5.222,5.222,0,0,0,5.171,5.3,3.621,3.621,0,0,0,2.774-1.261h.126v.757c0,2.018-1.135,3.153-2.9,3.153A2.8,2.8,0,0,1,84.1,34.378l-2.018.883a5.2,5.2,0,0,0,4.792,3.153c2.775,0,5.045-1.639,5.045-5.549V23.28h-2.27v.883ZM86.879,31.6a3.13,3.13,0,0,1-3.027-3.279,3.13,3.13,0,0,1,3.027-3.279,3.034,3.034,0,0,1,2.9,3.279A3.034,3.034,0,0,1,86.879,31.6Zm30.772-14h-5.675V33.369h2.4V27.441h3.279a4.925,4.925,0,1,0,0-9.837Zm.126,7.567h-3.405V19.748h3.405a2.77,2.77,0,0,1,2.774,2.648A2.886,2.886,0,0,1,117.777,25.171Zm14.5-2.27a4.239,4.239,0,0,0-4.162,2.4l2.144.883a2.228,2.228,0,0,1,2.144-1.135,2.37,2.37,0,0,1,2.522,2.018v.126a5,5,0,0,0-2.4-.631c-2.27,0-4.54,1.261-4.54,3.531a3.7,3.7,0,0,0,3.91,3.531,3.549,3.549,0,0,0,3.027-1.513h.126v1.261h2.27V27.315A4.773,4.773,0,0,0,132.28,22.9Zm-.252,8.7c-.757,0-1.892-.378-1.892-1.387,0-1.261,1.387-1.639,2.522-1.639a4.877,4.877,0,0,1,2.144.5A2.937,2.937,0,0,1,132.028,31.6ZM145.27,23.28l-2.648,6.81H142.5l-2.774-6.81H137.2l4.162,9.585-2.4,5.3h2.4l6.432-14.881ZM124.083,33.369h2.4V17.6h-2.4Z" transform="translate(37.608 19.676)" fill="#fff"/>
    <g id="Group_624" data-name="Group 624" transform="translate(39.487 20.054)">
      <path id="Path_565" data-name="Path 565" d="M10.5,7.5a3.054,3.054,0,0,0-.5,2V41.058a3.052,3.052,0,0,0,.631,2l.126.143L26.395,25.493v-.286L10.5,7.5Z" transform="translate(-10 -7.055)" fill="url(#linear-gradient)"/>
      <path id="Path_566" data-name="Path 566" d="M28.071,26.52,22.9,21.349v-.378L28.071,15.8l.126.126,6.18,3.531c1.766,1.009,1.766,2.648,0,3.657L28.071,26.52Z" transform="translate(-6.631 -2.794)" fill="url(#linear-gradient-2)"/>
      <path id="Path_567" data-name="Path 567" d="M31.461,25.3l-5.3-5.3L10.4,35.764c.631.631,1.513.631,2.648.126L31.461,25.3" transform="translate(-9.896 0.38)" fill="url(#linear-gradient-3)"/>
      <path id="Path_568" data-name="Path 568" d="M31.461,18.053,13.048,7.586a2.044,2.044,0,0,0-2.648.126L26.164,23.35Z" transform="translate(-9.896 -7.141)" fill="url(#linear-gradient-4)"/>
      <g id="Group_623" data-name="Group 623" transform="translate(0 25.551)">
        <path id="Path_569" data-name="Path 569" d="M31.335,24.1,13.048,34.441a2.062,2.062,0,0,1-2.522,0h0l-.126.126h0l.126.126h0a2.062,2.062,0,0,0,2.522,0L31.335,24.1Z" transform="translate(-9.896 -24.1)" fill="#0f0f0f" opacity="0.2"/>
        <path id="Path_570" data-name="Path 570" d="M10.5,32.666A2.466,2.466,0,0,1,10,30.9v.126a2.5,2.5,0,0,0,.631,1.766v-.126Z" transform="translate(-10 -22.324)" fill="#0f0f0f" opacity="0.12"/>
      </g>
      <path id="Path_571" data-name="Path 571" d="M33.306,21.639,27,25.171l.126.126,6.18-3.531A2.1,2.1,0,0,0,34.567,20h0C34.567,20.631,34.062,21.135,33.306,21.639Z" transform="translate(-5.561 -1.302)" fill="#0f0f0f" opacity="0.12"/>
      <path id="Path_572" data-name="Path 572" d="M13.153,7.718l24.592,14c.757.5,1.261,1.009,1.261,1.639h0a2.1,2.1,0,0,0-1.261-1.766l-24.592-14C11.387,6.583,10,7.34,10,9.358v.126C10,7.592,11.387,6.709,13.153,7.718Z" transform="translate(-10 -7.147)" fill="#fff" opacity="0.25"/>
    </g>
  </g>
</svg>
